<?xml version="1.0" encoding="UTF-8" standalone="no"?>
<!DOCTYPE svg PUBLIC "-//W3C//DTD SVG 1.1//EN"
 "http://www.w3.org/Graphics/SVG/1.1/DTD/svg11.dtd">
<!-- Generated by graphviz version 5.0.0 (20220707.1540)
 -->
<!-- Title: dependencies Pages: 1 -->
<svg width="1300pt" height="247pt"
 viewBox="0.00 0.00 1300.00 246.80" xmlns="http://www.w3.org/2000/svg" xmlns:xlink="http://www.w3.org/1999/xlink">
<g id="graph0" class="graph" transform="scale(1 1) rotate(0) translate(4 242.8)">
<title>dependencies</title>
<polygon fill="white" stroke="transparent" points="-4,4 -4,-242.8 1296,-242.8 1296,4 -4,4"/>
<text text-anchor="middle" x="646" y="-8.2" font-family="sans-serif" font-size="14.00">dependencies</text>
<g id="clust1" class="cluster">
<title>cluster_AppModule</title>
<polygon fill="none" stroke="black" stroke-dasharray="1,5" points="8,-32.8 8,-230.8 1284,-230.8 1284,-32.8 8,-32.8"/>
</g>
<g id="clust2" class="cluster">
<title>cluster_AppModule_declarations</title>
<polygon fill="none" stroke="black" points="308,-40.8 308,-92.8 1276,-92.8 1276,-40.8 308,-40.8"/>
</g>
<g id="clust9" class="cluster">
<title>cluster_AppModule_imports</title>
<polygon fill="none" stroke="black" points="156,-40.8 156,-92.8 300,-92.8 300,-40.8 156,-40.8"/>
</g>
<g id="clust11" class="cluster">
<title>cluster_AppModule_bootstrap</title>
<polygon fill="none" stroke="black" points="550,-170.8 550,-222.8 674,-222.8 674,-170.8 550,-170.8"/>
</g>
<g id="clust12" class="cluster">
<title>cluster_AppModule_providers</title>
<polygon fill="none" stroke="black" points="16,-40.8 16,-92.8 148,-92.8 148,-40.8 16,-40.8"/>
</g>
<!-- AddUpdateDialogComponent -->
<g id="node1" class="node">
<title>AddUpdateDialogComponent</title>
<polygon fill="#ffffb3" stroke="black" points="1267.97,-84.8 1084.03,-84.8 1084.03,-48.8 1267.97,-48.8 1267.97,-84.8"/>
<text text-anchor="middle" x="1176" y="-62.6" font-family="Times,serif" font-size="14.00">AddUpdateDialogComponent</text>
</g>
<!-- AppModule -->
<g id="node7" class="node">
<title>AppModule</title>
<polygon fill="#8dd3c7" stroke="black" points="653.66,-149.8 650.66,-153.8 629.66,-153.8 626.66,-149.8 570.34,-149.8 570.34,-113.8 653.66,-113.8 653.66,-149.8"/>
<text text-anchor="middle" x="612" y="-127.6" font-family="Times,serif" font-size="14.00">AppModule</text>
</g>
<!-- AddUpdateDialogComponent&#45;&gt;AppModule -->
<g id="edge1" class="edge">
<title>AddUpdateDialogComponent&#45;&gt;AppModule</title>
<path fill="none" stroke="black" d="M1176,-85.09C1176,-107.01 1176,-140.8 1176,-140.8 1176,-140.8 663.93,-140.8 663.93,-140.8"/>
<polygon fill="black" stroke="black" points="663.93,-137.3 653.93,-140.8 663.93,-144.3 663.93,-137.3"/>
</g>
<!-- AppComponent -->
<g id="node2" class="node">
<title>AppComponent</title>
<polygon fill="#ffffb3" stroke="black" points="1065.94,-84.8 960.06,-84.8 960.06,-48.8 1065.94,-48.8 1065.94,-84.8"/>
<text text-anchor="middle" x="1013" y="-62.6" font-family="Times,serif" font-size="14.00">AppComponent</text>
</g>
<!-- AppComponent&#45;&gt;AppModule -->
<g id="edge2" class="edge">
<title>AppComponent&#45;&gt;AppModule</title>
<path fill="none" stroke="black" d="M1013,-84.91C1013,-104.14 1013,-131.8 1013,-131.8 1013,-131.8 663.78,-131.8 663.78,-131.8"/>
<polygon fill="black" stroke="black" points="663.78,-128.3 653.78,-131.8 663.78,-135.3 663.78,-128.3"/>
</g>
<!-- ConfDialogComponent -->
<g id="node3" class="node">
<title>ConfDialogComponent</title>
<polygon fill="#ffffb3" stroke="black" points="942.94,-84.8 795.06,-84.8 795.06,-48.8 942.94,-48.8 942.94,-84.8"/>
<text text-anchor="middle" x="869" y="-62.6" font-family="Times,serif" font-size="14.00">ConfDialogComponent</text>
</g>
<!-- ConfDialogComponent&#45;&gt;AppModule -->
<g id="edge3" class="edge">
<title>ConfDialogComponent&#45;&gt;AppModule</title>
<path fill="none" stroke="black" d="M869,-84.83C869,-101.2 869,-122.8 869,-122.8 869,-122.8 663.86,-122.8 663.86,-122.8"/>
<polygon fill="black" stroke="black" points="663.86,-119.3 653.86,-122.8 663.86,-126.3 663.86,-119.3"/>
</g>
<!-- PageNotFoundComponent -->
<g id="node4" class="node">
<title>PageNotFoundComponent</title>
<polygon fill="#ffffb3" stroke="black" points="777.83,-84.8 612.17,-84.8 612.17,-48.8 777.83,-48.8 777.83,-84.8"/>
<text text-anchor="middle" x="695" y="-62.6" font-family="Times,serif" font-size="14.00">PageNotFoundComponent</text>
</g>
<!-- PageNotFoundComponent&#45;&gt;AppModule -->
<g id="edge4" class="edge">
<title>PageNotFoundComponent&#45;&gt;AppModule</title>
<path fill="none" stroke="black" d="M633.08,-84.91C633.08,-84.91 633.08,-103.79 633.08,-103.79"/>
<polygon fill="black" stroke="black" points="629.58,-103.79 633.08,-113.79 636.58,-103.79 629.58,-103.79"/>
</g>
<!-- UserInfoComponent -->
<g id="node5" class="node">
<title>UserInfoComponent</title>
<polygon fill="#ffffb3" stroke="black" points="594.59,-84.8 463.41,-84.8 463.41,-48.8 594.59,-48.8 594.59,-84.8"/>
<text text-anchor="middle" x="529" y="-62.6" font-family="Times,serif" font-size="14.00">UserInfoComponent</text>
</g>
<!-- UserInfoComponent&#45;&gt;AppModule -->
<g id="edge5" class="edge">
<title>UserInfoComponent&#45;&gt;AppModule</title>
<path fill="none" stroke="black" d="M582.36,-84.91C582.36,-84.91 582.36,-103.79 582.36,-103.79"/>
<polygon fill="black" stroke="black" points="578.86,-103.79 582.36,-113.79 585.86,-103.79 578.86,-103.79"/>
</g>
<!-- UserListComponent -->
<g id="node6" class="node">
<title>UserListComponent</title>
<polygon fill="#ffffb3" stroke="black" points="445.55,-84.8 316.45,-84.8 316.45,-48.8 445.55,-48.8 445.55,-84.8"/>
<text text-anchor="middle" x="381" y="-62.6" font-family="Times,serif" font-size="14.00">UserListComponent</text>
</g>
<!-- UserListComponent&#45;&gt;AppModule -->
<g id="edge6" class="edge">
<title>UserListComponent&#45;&gt;AppModule</title>
<path fill="none" stroke="black" d="M381,-84.83C381,-101.2 381,-122.8 381,-122.8 381,-122.8 560.17,-122.8 560.17,-122.8"/>
<polygon fill="black" stroke="black" points="560.17,-126.3 570.17,-122.8 560.17,-119.3 560.17,-126.3"/>
</g>
<!-- AppComponent  -->
<g id="node9" class="node">
<title>AppComponent </title>
<polygon fill="#80b1d3" stroke="black" points="666.44,-214.8 557.56,-214.8 557.56,-178.8 666.44,-178.8 666.44,-214.8"/>
<text text-anchor="middle" x="612" y="-192.6" font-family="Times,serif" font-size="14.00">AppComponent </text>
</g>
<!-- AppModule&#45;&gt;AppComponent  -->
<g id="edge8" class="edge">
<title>AppModule&#45;&gt;AppComponent </title>
<path fill="none" stroke="black" stroke-dasharray="1,5" d="M612,-149.91C612,-149.91 612,-168.79 612,-168.79"/>
<polygon fill="black" stroke="black" points="608.5,-168.79 612,-178.79 615.5,-168.79 608.5,-168.79"/>
</g>
<!-- AppRoutingModule -->
<g id="node8" class="node">
<title>AppRoutingModule</title>
<polygon fill="#8dd3c7" stroke="black" points="292.28,-84.8 289.28,-88.8 268.28,-88.8 265.28,-84.8 163.72,-84.8 163.72,-48.8 292.28,-48.8 292.28,-84.8"/>
<text text-anchor="middle" x="228" y="-62.6" font-family="Times,serif" font-size="14.00">AppRoutingModule</text>
</g>
<!-- AppRoutingModule&#45;&gt;AppModule -->
<g id="edge7" class="edge">
<title>AppRoutingModule&#45;&gt;AppModule</title>
<path fill="none" stroke="black" d="M228,-84.91C228,-104.14 228,-131.8 228,-131.8 228,-131.8 560.17,-131.8 560.17,-131.8"/>
<polygon fill="black" stroke="black" points="560.17,-135.3 570.17,-131.8 560.17,-128.3 560.17,-135.3"/>
</g>
<!-- UserService -->
<g id="node10" class="node">
<title>UserService</title>
<ellipse fill="#fdb462" stroke="black" cx="82" cy="-66.8" rx="58.46" ry="18"/>
<text text-anchor="middle" x="82" y="-62.6" font-family="Times,serif" font-size="14.00">UserService</text>
</g>
<!-- UserService&#45;&gt;AppModule -->
<g id="edge9" class="edge">
<title>UserService&#45;&gt;AppModule</title>
<path fill="none" stroke="black" d="M82,-85.09C82,-107.01 82,-140.8 82,-140.8 82,-140.8 559.97,-140.8 559.97,-140.8"/>
<polygon fill="black" stroke="black" points="559.97,-144.3 569.97,-140.8 559.97,-137.3 559.97,-144.3"/>
</g>
</g>
</svg>
